/* XPM */
static char *bb5522b5a5f64ab484fd231fb751b72cETc9kU9LfnZj1mu4[] = {
/* columns rows colors chars-per-pixel */
"22 50 4 1 ",
"  c None",
". c #442434",
"X c #854C30",
"o c #D27D2C",
/* pixels */
"                      ",
"       ........       ",
"       ........       ",
"       ........       ",
"    ...oooooooo...    ",
"    ...oooooooo...    ",
"    ...oooooooo...    ",
" ...oooooooooooooo... ",
" ...oooooooooooooo... ",
" ...oooooooooooooo... ",
" ...oooooooooooooo... ",
" ...oooooooooooooo... ",
" ...oooooooooooooo... ",
" ...XXXooooooooXXX... ",
" ...XXXooooooooXXX... ",
" ...XXXooooooooXXX... ",
" ...XXXooooooooXXX... ",
" ...XXXooooooooXXX... ",
" ...XXXooooooooXXX... ",
" ...XXXooooooooXXX... ",
" ...XXXooooooooXXX... ",
" ...XXXXXXXXXXXXXX... ",
" ...XXXXXXXXXXXXXX... ",
" ...XXXXXXXXXXXXXX... ",
" ...XXXXXXXXXXXXXX... ",
" ...XXXXXXXXXXXXXX... ",
" ...XXXXXXXXXXXXXX... ",
" ...XXXXXXXXXXXXXX... ",
" ...XXXXXXXXXXXXXX... ",
" ...XXXXXXXXXXXXXX... ",
" ...XXXXXXXXXXXXXX... ",
" ...XXXXXXXXXXXXXX... ",
" ...XXXXXXXXXXXXXX... ",
" ...XXXXXXXXXXXXXX... ",
" ...XXXXXXXXXXXXXX... ",
" ...XXXXXXXXXXXXXX... ",
" ...XXXXXXXXXXXXXX... ",
" ...XXXXXXXXXXXXXX... ",
" ...XXXXXXXXXXXXXX... ",
" ...XXXXXXXXXXXXXX... ",
" ...XXXXXXXXXXXXXX... ",
" ...XXXXXXXXXXXXXX... ",
" ...XXXXXXXXXXXXXX... ",
" ...XXXXXXXXXXXXXX... ",
"    ...XXXXXXXX...    ",
"    ...XXXXXXXX...    ",
"    ...XXXXXXXX...    ",
"       ........       ",
"       ........       ",
"       ........       ",
"                      "
};
