/* XPM */
static char *_322ecfa68ab4c93f63dd8811449ccd0RgRwKV3wl9B3NchV[] = {
/* columns rows colors chars-per-pixel */
"12 48 3 1 ",
"  c #442434",
". c #D27D2C",
"X c white",
/* pixels */
"            ",
"            ",
"  ........  ",
"  ........  ",
"  ........  ",
"  ........  ",
"  ........  ",
"  ........  ",
"  ........  ",
"  ........  ",
"  ........  ",
"  ........  ",
"  ........  ",
"  ........  ",
"  ........  ",
"  ........  ",
"  ........  ",
"  ........  ",
"  ........  ",
"  ........  ",
"  ........  ",
"  ........  ",
"  ........  ",
"  ........  ",
"  ........  ",
"  ........  ",
"  ........  ",
"  ........  ",
"  ........  ",
"  ........  ",
"  ........  ",
"  ........  ",
"  ........  ",
"  ........  ",
"  ........  ",
"  ........  ",
"  ........  ",
"  ........  ",
"  ........  ",
"  ........  ",
"  ........  ",
"  ........  ",
"  ........  ",
"  ........  ",
"  ........  ",
"  ........  ",
"            ",
"            "
};
